<svg width="20" height="20" viewBox="0 0 20 20" fill="none" xmlns="http://www.w3.org/2000/svg">
<path d="M6.68 11.34L13.3 14.65M6.68 8.66L13.3 5.35M4 7C4.59334 7 5.17336 7.17595 5.66671 7.50559C6.16006 7.83524 6.54458 8.30377 6.77164 8.85195C6.9987 9.40013 7.05811 10.0033 6.94236 10.5853C6.8266 11.1672 6.54088 11.7018 6.12132 12.1213C5.70176 12.5409 5.16721 12.8266 4.58527 12.9424C4.00333 13.0581 3.40013 12.9987 2.85195 12.7716C2.30377 12.5446 1.83524 12.1601 1.50559 11.6667C1.17595 11.1734 1 10.5933 1 10C1 9.20435 1.31607 8.44129 1.87868 7.87868C2.44129 7.31607 3.20435 7 4 7ZM13 16C13 16.5933 13.1759 17.1734 13.5056 17.6667C13.8352 18.1601 14.3038 18.5446 14.8519 18.7716C15.4001 18.9987 16.0033 19.0581 16.5853 18.9424C17.1672 18.8266 17.7018 18.5409 18.1213 18.1213C18.5409 17.7018 18.8266 17.1672 18.9424 16.5853C19.0581 16.0033 18.9987 15.4001 18.7716 14.852C18.5446 14.3038 18.1601 13.8352 17.6667 13.5056C17.1734 13.1759 16.5933 13 16 13C15.2044 13 14.4413 13.3161 13.8787 13.8787C13.3161 14.4413 13 15.2044 13 16ZM16 7C16.5933 7 17.1734 6.82405 17.6667 6.49441C18.1601 6.16477 18.5446 5.69623 18.7716 5.14805C18.9987 4.59987 19.0581 3.99667 18.9424 3.41473C18.8266 2.83279 18.5409 2.29824 18.1213 1.87868C17.7018 1.45912 17.1672 1.1734 16.5853 1.05765C16.0033 0.94189 15.4001 1.0013 14.8519 1.22836C14.3038 1.45543 13.8352 1.83994 13.5056 2.33329C13.1759 2.82664 13 3.40666 13 4C13 4.79565 13.3161 5.55871 13.8787 6.12132C14.4413 6.68393 15.2044 7 16 7Z" stroke="black" stroke-width="2" stroke-linecap="round" stroke-linejoin="round"/>
</svg>
