<svg width="28" height="29" viewBox="0 0 28 29" fill="none" xmlns="http://www.w3.org/2000/svg">
<path d="M6.88752 13.536C6.81333 13.0353 6.77483 12.5223 6.77483 12C6.77483 6.47715 11.0785 2 16.3874 2C21.6963 2 26 6.47715 26 12C26 13.2476 25.7804 14.4418 25.3792 15.5431C25.2959 15.7719 25.2542 15.8862 25.2353 15.9755C25.2165 16.064 25.2093 16.1262 25.2073 16.2168C25.2052 16.3082 25.217 16.409 25.2407 16.6104L25.7213 20.6982C25.7733 21.1407 25.7993 21.3619 25.729 21.5228C25.6674 21.6637 25.5581 21.7757 25.4221 21.8369C25.2669 21.9068 25.0563 21.8744 24.635 21.8098L20.8327 21.2261C20.6341 21.1957 20.5349 21.1804 20.4445 21.181C20.355 21.1815 20.2931 21.1884 20.2056 21.2077C20.1171 21.2272 20.0041 21.2715 19.778 21.3602C18.7236 21.7737 17.5809 22 16.3874 22C15.8882 22 15.3979 21.9604 14.9192 21.8841M8.72253 27C12.2618 27 15.1309 23.922 15.1309 20.125C15.1309 16.328 12.2618 13.25 8.72253 13.25C5.18327 13.25 2.31414 16.328 2.31414 20.125C2.31414 20.8882 2.43007 21.6224 2.64407 22.3084C2.73453 22.5984 2.77976 22.7434 2.79461 22.8424C2.8101 22.9458 2.81282 23.0039 2.80705 23.1084C2.80152 23.2085 2.77761 23.3216 2.72977 23.5479L2 27L5.57495 26.4887C5.77008 26.4608 5.86765 26.4469 5.95285 26.4475C6.04255 26.4481 6.09017 26.4532 6.17815 26.4716C6.2617 26.489 6.38592 26.5349 6.63434 26.6267C7.28888 26.8687 7.99141 27 8.72253 27Z" stroke="#FFBE3C" stroke-width="3" stroke-linecap="round" stroke-linejoin="round"/>
</svg>
